# xmcd
#
# Track frame offsets:
#	150
#	19666
#	38032
#	53555
#	68797
#	79490
#	96404
#	109000
#	125164
#	160385
#	194705
#	204368
#	219562
#	236810
#	253258
#	269555
#	284894
#	319980
#
# Disc length: 4439 seconds
#
# Revision: 1
# Processed by: cddbd v1.4PL0 Copyright (c) Steve Scherf et al.
# Submitted via: audiograbber 1.80
#
DISCID=23115512
DTITLE=Jimi Hendrix - Worlds ballads collection
DYEAR=1900
DGENRE=
TTITLE0=Angel
TTITLE1=Bold as love
TTITLE2=Bleeding hearts
TTITLE3=Hey Joe
TTITLE4=Little wing
TTITLE5=Drifting
TTITLE6=Castle made of sand
TTITLE7=Belly button window
TTITLE8=Once i had a women
TTITLE9=Burn under a bad sign
TTITLE10=Have you ever been (to electric ladyland)
TTITLE11=The wind cries mary
TTITLE12=Red house
TTITLE13=Burning of the midnight lamp
TTITLE14=One rainy wish
TTITLE15=Pretenders bold as love
TTITLE16=Catfish blues
TTITLE17=May yhis be love
EXTD=CD Owner: Dawe\nGrab: Des\nTanx Audiograber :-)
EXTT0=
EXTT1=
EXTT2=
EXTT3=
EXTT4=
EXTT5=
EXTT6=
EXTT7=
EXTT8=
EXTT9=
EXTT10=
EXTT11=
EXTT12=
EXTT13=
EXTT14=
EXTT15=
EXTT16=
EXTT17=
PLAYORDER=
